<svg width="800" height="600" xmlns="http://www.w3.org/2000/svg">

 <g>
  <title>Layer 1</title>
  <path stroke-width="3" d="m46.5,52.85807c0.57143,0 1.14285,0 1.71428,0c0.57143,0 1.14285,0 2.28571,0c1.14285,0 2.85713,0 4.57141,0c1.14285,0 2.28571,0 2.85714,0c1.14285,0 2.28571,0 3.42856,0c0.57143,0 1.14285,0 2.28571,0c0.57143,0 1.14285,0 2.28571,0c1.14285,0 2.28571,0 3.42856,0c1.14285,0 2.28571,0 2.85713,0c0.57143,0 1.14285,0 1.71428,0c1.14285,0 1.71428,0 2.28571,0c0.57143,0 1.14285,0 2.28571,0c1.14285,0 2.85713,0 3.99998,0c2.85713,0 4.57141,0 6.85712,0c2.28571,0 4.57141,0.57143 6.28569,0.57143c1.71428,0 2.75642,0.27786 3.99998,0.57143c1.11228,0.26257 2.28571,0 3.42856,0c3.42856,0 5.72711,-0.20946 7.42854,0c2.3384,0.28787 2.85713,1.14285 3.99998,1.14285c1.71428,0 2.28571,0 3.99998,0c1.71429,0 2.28571,0 4.57142,0c2.28571,0 2.85713,0 4.57141,0c2.2857,0 3.42855,0 4.5714,0c1.71428,0 2.85713,0 4.57141,0c1.14285,0 2.85713,0 4.57141,0c2.28571,0 3.42856,0 3.99998,0c0.57143,0 1.14285,0 1.71428,0c1.14285,0 1.71428,0 2.85713,0c0.57143,0 1.22984,-0.43735 2.28571,0c0.7466,0.30925 1.14285,0.57143 1.71428,0.57143c0.57143,0 1.14285,0 1.71428,0c1.14285,0 2.28571,0 2.85713,0c1.14287,0 2.85715,0 3.42857,0c1.14285,0 2.85713,0 3.99998,0c1.14285,0 2.28571,0 2.85713,0c0.57143,0 1.2282,0.30042 1.71428,0c1.08691,-0.67175 2.28571,-1.14285 3.99998,-1.14285c1.14285,0 2.28571,0 3.42856,0c1.14285,0 3.99998,0 5.14284,0c1.71428,0 3.42856,0 5.14284,0c1.71428,0 3.42856,0 5.71426,0c1.14285,0 2.85713,0 3.99998,0c1.14285,0 2.31628,0.26257 3.42856,0c1.24356,-0.29357 2.85713,-0.57143 4.57141,-0.57143c0.57143,0 2.29309,0.09153 2.85713,0c1.78368,-0.28945 2.28571,-1.14285 3.42856,-1.14285c0.57143,0 1.71428,0 2.85713,0c1.14285,0 2.28571,0 2.85713,0c1.14285,0 2.28571,0 3.42856,0c0.57143,0 2.28571,0.57143 3.42856,0.57143c1.14285,0 1.64488,0.28197 3.42856,0.57143c1.1281,0.18306 2.30046,-0.18306 3.42856,0c1.78368,0.28945 2.28571,0.57143 3.42856,0.57143c1.71428,0 3.32785,0.27786 4.57141,0.57143c1.11227,0.26257 2.28571,0 3.42856,0c0.57143,0 1.14285,0 1.71428,0c1.71428,0 3.45218,-0.0873 5.71426,0.57143c1.73494,0.50522 3.42856,0.57143 5.71426,0.57143c1.14285,0 1.71429,0 2.28571,0c1.14285,0 2.28571,0 4,0c1.14285,0 2.28571,0 2.85712,0c0.57144,0 2.28571,0 3.42856,0c1.71429,0 2.28571,0 2.85715,0c0.57141,0 1.14285,0 3.99997,-0.57143l1.71429,0l1.14285,-0.57143l0.57141,0" id="svg_3" stroke="#000" fill="none"/>
 </g>
</svg>